<svg xmlns="http://www.w3.org/2000/svg" viewBox="0 0 216.19 142.91">
  <title>vecer-vecer-logo-short</title>
  <g>
    <g>
      <path d="M1.84,134.6a1.79,1.79,0,0,1,1.31.54,1.82,1.82,0,0,1,0,2.6,1.78,1.78,0,0,1-1.3.54,1.77,1.77,0,0,1-1.3-.54,1.83,1.83,0,0,1,0-2.6A1.77,1.77,0,0,1,1.84,134.6Z" style="fill: #fff"/>
      <path d="M7.57,134.6a1.84,1.84,0,0,1,1.31,3.14,1.81,1.81,0,0,1-1.31.54,1.84,1.84,0,0,1,0-3.68Z" style="fill: #fff"/>
      <path d="M13.31,134.6a1.83,1.83,0,0,1,1.84,1.84,1.84,1.84,0,0,1-3.14,1.3,1.84,1.84,0,0,1,1.3-3.14Z" style="fill: #fff"/>
      <path d="M23.63,127.58l-1.39,4.81a28.42,28.42,0,0,1,2.1-2.88A7.32,7.32,0,0,1,26.1,128a3,3,0,0,1,1.39-.4,1.31,1.31,0,0,1,1,.43,1.55,1.55,0,0,1,.42,1.13,5.42,5.42,0,0,1-.27,1.52l-1.44,4.78a4.44,4.44,0,0,0-.17.82.26.26,0,0,0,.08.2.24.24,0,0,0,.17.09.4.4,0,0,0,.24-.09,4.2,4.2,0,0,0,.79-.92l.33-.47.42.26c-1.09,1.85-2.25,2.77-3.46,2.77a1.53,1.53,0,0,1-1.08-.36,1.18,1.18,0,0,1-.4-.9,5.58,5.58,0,0,1,.27-1.4l1.4-4.78a2.53,2.53,0,0,0,.15-.69.27.27,0,0,0-.1-.22.33.33,0,0,0-.24-.1,1.71,1.71,0,0,0-1,.59,15.79,15.79,0,0,0-3,4.4L20.65,138H17.8l2.09-7.19a6.5,6.5,0,0,0,.3-1.51.55.55,0,0,0-.09-.32.6.6,0,0,0-.29-.2,2.53,2.53,0,0,0-.76-.07l.13-.43,3.77-.66Z" style="fill: #fff"/>
      <path d="M31.65,128.21l3.71-.63H36l-.5,1.83A9.16,9.16,0,0,1,37.45,128a3.33,3.33,0,0,1,1.49-.38,1.87,1.87,0,0,1,1.63.81,3.39,3.39,0,0,1,.57,2,8.28,8.28,0,0,1-2.23,5.7,5.73,5.73,0,0,1-4.3,2.2,2.9,2.9,0,0,1-.71-.08,4.52,4.52,0,0,1-.81-.35l-.59,2a6.58,6.58,0,0,0-.31,1.67.68.68,0,0,0,.25.56,2.71,2.71,0,0,0,1.15.36l-.1.41h-6l.12-.41a1.83,1.83,0,0,0,1.19-.46,4.32,4.32,0,0,0,.89-1.89l2.73-9.42a6.34,6.34,0,0,0,.3-1.48.53.53,0,0,0-.09-.32.47.47,0,0,0-.26-.19,3.29,3.29,0,0,0-.81-.06Zm1.75,8.6a2.42,2.42,0,0,0,.6.73,1,1,0,0,0,.63.19,1.41,1.41,0,0,0,.7-.2,3.57,3.57,0,0,0,.85-.79,7.69,7.69,0,0,0,1-1.52,9.85,9.85,0,0,0,.74-2.11,9.63,9.63,0,0,0,.28-2.26,2,2,0,0,0-.31-1.25.91.91,0,0,0-.74-.39,1.4,1.4,0,0,0-.74.2,5,5,0,0,0-1.19,1.08Z" style="fill: #fff"/>
      <path d="M47.61,132.55c1.86.2,2.79.95,2.79,2.27A3,3,0,0,1,49,137.28a5.32,5.32,0,0,1-3.23,1,3.39,3.39,0,0,1-2.68-.93,3.31,3.31,0,0,1-.81-2.27,8,8,0,0,1,1-3.64,7.09,7.09,0,0,1,2.55-2.87,6.11,6.11,0,0,1,3.27-1,2.76,2.76,0,0,1,1.73.48,1.43,1.43,0,0,1,.61,1.19,2.46,2.46,0,0,1-1.06,1.86A7.94,7.94,0,0,1,47.61,132.55Zm-2,.78a13.76,13.76,0,0,0-.58,3.14c0,.82.27,1.23.79,1.23s.86-.41,1.23-1.21a5.74,5.74,0,0,0,.56-2.42c0-.68-.29-1-.88-1A3.17,3.17,0,0,0,45.59,133.33Zm.21-.7a3.65,3.65,0,0,0,2.61-1.54,4.26,4.26,0,0,0,.83-2.26c0-.45-.19-.68-.57-.68C47.7,128.15,46.74,129.65,45.8,132.63Z" style="fill: #fff"/>
      <path d="M58.07,127.58,55.9,135.2a3.36,3.36,0,0,0-.16.73.19.19,0,0,0,.08.15.29.29,0,0,0,.22.09c.34,0,.8-.3,1.37-.92A18.77,18.77,0,0,0,60,131.42L61,128l2.83-.11-2.15,7.4a7.76,7.76,0,0,0-.27,1.07.3.3,0,0,0,.09.19.22.22,0,0,0,.17.09.41.41,0,0,0,.3-.13,6.56,6.56,0,0,0,1.07-1.31l.38.27q-1.56,2.81-3.43,2.81a1.58,1.58,0,0,1-1.09-.36,1.18,1.18,0,0,1-.4-.92,5.81,5.81,0,0,1,.28-1.53l.55-1.9a32.92,32.92,0,0,1-2.12,2.86,7.16,7.16,0,0,1-1.69,1.48,2.88,2.88,0,0,1-1.32.37,1.39,1.39,0,0,1-1-.44,1.5,1.5,0,0,1-.43-1.11,5.67,5.67,0,0,1,.28-1.53l1.26-4.48a6.91,6.91,0,0,0,.32-1.48.62.62,0,0,0-.09-.3.63.63,0,0,0-.3-.2,2.7,2.7,0,0,0-.77-.07l.11-.43,3.82-.66Z" style="fill: #fff"/>
      <path d="M76.35,132.55c1.86.2,2.79.95,2.79,2.27a3,3,0,0,1-1.36,2.46,5.3,5.3,0,0,1-3.23,1,3.39,3.39,0,0,1-2.68-.93,3.31,3.31,0,0,1-.81-2.27,8,8,0,0,1,1-3.64,7.09,7.09,0,0,1,2.55-2.87,6.11,6.11,0,0,1,3.27-1,2.76,2.76,0,0,1,1.73.48,1.43,1.43,0,0,1,.61,1.19,2.46,2.46,0,0,1-1.06,1.86A7.94,7.94,0,0,1,76.35,132.55Zm-2,.78a13.6,13.6,0,0,0-.57,3.14q0,1.23.78,1.23c.45,0,.86-.41,1.23-1.21a5.59,5.59,0,0,0,.56-2.42c0-.68-.29-1-.88-1A3.17,3.17,0,0,0,74.33,133.33Zm.21-.7a3.65,3.65,0,0,0,2.61-1.54,4.26,4.26,0,0,0,.83-2.26c0-.45-.19-.68-.57-.68C76.44,128.15,75.48,129.65,74.54,132.63Z" style="fill: #fff"/>
      <path d="M88,127.58a3.55,3.55,0,0,1,1.66.41,2.77,2.77,0,0,1,1.18,1.14,3.33,3.33,0,0,1,.39,1.61,7.34,7.34,0,0,1-1,3.63,7.83,7.83,0,0,1-2.67,2.86,6.21,6.21,0,0,1-3.34,1.05,3.08,3.08,0,0,1-2.36-.91,3.17,3.17,0,0,1-.83-2.22,7,7,0,0,1,.62-2.92,8.92,8.92,0,0,1,1.58-2.37,8.09,8.09,0,0,1,2.2-1.65A5.65,5.65,0,0,1,88,127.58Zm-.46.59a1.44,1.44,0,0,0-1,.35,9.45,9.45,0,0,0-1.77,3.3,13.49,13.49,0,0,0-1,4.68,1.2,1.2,0,0,0,.31.85,1,1,0,0,0,.74.33,1.23,1.23,0,0,0,.77-.26,6.27,6.27,0,0,0,1.21-1.81A16.33,16.33,0,0,0,88,132.5a11.76,11.76,0,0,0,.46-3.1,1.39,1.39,0,0,0-.28-.91A.85.85,0,0,0,87.5,128.17Z" style="fill: #fff"/>
      <path d="M106.3,122.78l1.12,10.43,7.23-10.43H120l-.14.41a2.57,2.57,0,0,0-1.66.47,3.77,3.77,0,0,0-1,1.86l-2.8,9.72a5.41,5.41,0,0,0-.27,1.37.8.8,0,0,0,.34.67,2.6,2.6,0,0,0,1.32.27l-.1.41H108.1l.13-.41a2.85,2.85,0,0,0,1.8-.47,3.66,3.66,0,0,0,1-1.84l2.86-9.84L105.18,138h-.45l-1.37-12.81-2.9,10.09a3.84,3.84,0,0,0-.18,1,1.12,1.12,0,0,0,.39.9,2,2,0,0,0,1.31.38l-.11.41h-5l.1-.41a2.5,2.5,0,0,0,1.39-.38,3.49,3.49,0,0,0,1.23-1.93L102.85,124a2.54,2.54,0,0,0-.84-.67,3.44,3.44,0,0,0-1.26-.16l.13-.41Z" style="fill: #fff"/>
      <path d="M129,127.74l-2.18,7.45-.22.9a1.75,1.75,0,0,0,0,.25.36.36,0,0,0,.09.24.32.32,0,0,0,.2.1,1.18,1.18,0,0,0,.65-.36,9.06,9.06,0,0,0,.8-1l.4.2a6.38,6.38,0,0,1-1.7,2.12,3.17,3.17,0,0,1-1.94.67,1.35,1.35,0,0,1-1-.33,1.14,1.14,0,0,1-.33-.84,7.25,7.25,0,0,1,.35-1.62l.27-.91a11,11,0,0,1-2.49,3.16,2.39,2.39,0,0,1-1.48.54,1.55,1.55,0,0,1-1.49-.85,3.88,3.88,0,0,1-.46-1.91,8.7,8.7,0,0,1,1-3.62,9.08,9.08,0,0,1,2.53-3.29,4,4,0,0,1,2.42-1,1.37,1.37,0,0,1,1,.37,2.47,2.47,0,0,1,.56,1.32l.4-1.38Zm-3.59,2.13a2.29,2.29,0,0,0-.28-1.31.62.62,0,0,0-.55-.28,1.07,1.07,0,0,0-.71.33,8.36,8.36,0,0,0-1.62,2.82,9.94,9.94,0,0,0-.87,3.67,1.44,1.44,0,0,0,.2.85.54.54,0,0,0,.43.27,1.45,1.45,0,0,0,1-.59,8.84,8.84,0,0,0,1.33-2A8.6,8.6,0,0,0,125.42,129.87Z" style="fill: #fff"/>
      <path d="M135.55,127.58l-1.37,4.77a4.14,4.14,0,0,0,1.87-.33,3.92,3.92,0,0,0,1.34-1.75,8.17,8.17,0,0,1,1.39-2.2,1.77,1.77,0,0,1,1.18-.49,1.25,1.25,0,0,1,.89.31,1.06,1.06,0,0,1,.33.82,1.22,1.22,0,0,1-.32.86,1.05,1.05,0,0,1-.8.34,1.1,1.1,0,0,1-.68-.25,1.06,1.06,0,0,0-.48-.25.49.49,0,0,0-.39.19,8.69,8.69,0,0,0-.64,1.13,4,4,0,0,1-1.59,1.86,2.5,2.5,0,0,1,1.07.74,28.78,28.78,0,0,1,1.48,2.74,7.76,7.76,0,0,0,.68,1.22,1,1,0,0,0,.61.26L140,138h-2.82l-1.6-3.14a9.53,9.53,0,0,0-.89-1.54A.84.84,0,0,0,134,133l-1.43,5h-2.8l2.13-7.42a5.52,5.52,0,0,0,.25-1.2q0-.61-1.14-.66l.13-.42,3.79-.68Z" style="fill: #fff"/>
      <path d="M144,133.76a8.71,8.71,0,0,0-.1,1.2,1.89,1.89,0,0,0,.48,1.35,1.76,1.76,0,0,0,1.31.5,3.62,3.62,0,0,0,1.57-.38,7.93,7.93,0,0,0,1.83-1.33l.34.3a9,9,0,0,1-2.51,2.22,5.56,5.56,0,0,1-2.7.66,3.15,3.15,0,0,1-2.59-.9,3.27,3.27,0,0,1-.71-2.07,7.14,7.14,0,0,1,1.07-3.67,8.15,8.15,0,0,1,2.91-2.95,7.11,7.11,0,0,1,3.7-1.11A2,2,0,0,1,150,128a1.49,1.49,0,0,1,.48,1.13,2.94,2.94,0,0,1-.47,1.59,5.31,5.31,0,0,1-1.63,1.7,7.91,7.91,0,0,1-2.21,1A11.89,11.89,0,0,1,144,133.76Zm.1-.58a6,6,0,0,0,1.53-.4,3.4,3.4,0,0,0,1.06-.8,5,5,0,0,0,.9-1.4A3.8,3.8,0,0,0,148,129a.65.65,0,0,0-.17-.49.59.59,0,0,0-.44-.18,1.81,1.81,0,0,0-1.21.75A10.62,10.62,0,0,0,144.12,133.18Z" style="fill: #fff"/>
      <path d="M155.25,122.87l.18-.44a8.44,8.44,0,0,1,5.41,7.93,7.77,7.77,0,0,1-2.23,5.59,6.57,6.57,0,0,1-4.74,2.33,3.35,3.35,0,0,1-2.41-.87,3.19,3.19,0,0,1-.9-2.41,7.37,7.37,0,0,1,2.14-5.08q2.13-2.34,4.25-2.34a2.37,2.37,0,0,1,1.16.31A6.36,6.36,0,0,0,155.25,122.87Zm1.82,5.32c-.92,0-1.76,1.05-2.55,3.15a15.31,15.31,0,0,0-1.17,4.93c0,.93.35,1.39,1.06,1.39s1.68-1,2.48-3.13a14.9,14.9,0,0,0,1.19-4.9C158.08,128.67,157.74,128.19,157.07,128.19Z" style="fill: #fff"/>
      <path d="M169,127.58a3.55,3.55,0,0,1,1.66.41,2.77,2.77,0,0,1,1.18,1.14,3.34,3.34,0,0,1,.4,1.61,7.35,7.35,0,0,1-1,3.63,7.74,7.74,0,0,1-2.67,2.86,6.18,6.18,0,0,1-3.34,1.05,3,3,0,0,1-2.35-.91,3.13,3.13,0,0,1-.84-2.22,7,7,0,0,1,.62-2.92,8.92,8.92,0,0,1,1.58-2.37,8.24,8.24,0,0,1,2.2-1.65A5.65,5.65,0,0,1,169,127.58Zm-.46.59a1.43,1.43,0,0,0-1,.35,9.12,9.12,0,0,0-1.77,3.3,13.29,13.29,0,0,0-1,4.68,1.2,1.2,0,0,0,.31.85,1,1,0,0,0,.74.33,1.28,1.28,0,0,0,.78-.26,6.48,6.48,0,0,0,1.21-1.81A16.31,16.31,0,0,0,169,132.5a11.76,11.76,0,0,0,.46-3.1,1.34,1.34,0,0,0-.28-.91A.85.85,0,0,0,168.5,128.17Z" style="fill: #fff"/>
      <path d="M181.93,127.89h2.8l-2.13,7.44a4.89,4.89,0,0,0-.22,1c0,.18.08.27.25.27s.76-.5,1.37-1.49l.44.28a7.41,7.41,0,0,1-1.92,2.22,3.13,3.13,0,0,1-1.6.49,1.31,1.31,0,0,1-1.07-.42,1.4,1.4,0,0,1-.34-.89,7.61,7.61,0,0,1,.36-1.68l.63-2.18h-3.07L176,138h-2.8l2.07-7.23a6.17,6.17,0,0,0,.31-1.42.5.5,0,0,0-.21-.46,2.46,2.46,0,0,0-.91-.17l.11-.42,3.8-.68H179l-1.36,4.78h3.05Z" style="fill: #fff"/>
      <path d="M191.72,127.58l-2.17,7.62a2.84,2.84,0,0,0-.16.73.19.19,0,0,0,.08.15.29.29,0,0,0,.21.09c.34,0,.8-.3,1.38-.92a19.18,19.18,0,0,0,2.59-3.83l1-3.42,2.83-.11-2.15,7.4a7.76,7.76,0,0,0-.27,1.07.34.34,0,0,0,.08.19.26.26,0,0,0,.18.09.44.44,0,0,0,.3-.13,6.61,6.61,0,0,0,1.06-1.31l.38.27c-1,1.87-2.18,2.81-3.42,2.81a1.54,1.54,0,0,1-1.09-.36,1.15,1.15,0,0,1-.4-.92,5.42,5.42,0,0,1,.28-1.53l.55-1.9a32.92,32.92,0,0,1-2.12,2.86,7.17,7.17,0,0,1-1.7,1.48,2.87,2.87,0,0,1-1.31.37,1.41,1.41,0,0,1-1-.44,1.5,1.5,0,0,1-.43-1.11,5.67,5.67,0,0,1,.28-1.53l1.27-4.48a6.68,6.68,0,0,0,.31-1.48.53.53,0,0,0-.09-.3.63.63,0,0,0-.3-.2,2.58,2.58,0,0,0-.76-.07l.11-.43,3.82-.66Z" style="fill: #fff"/>
      <path d="M204.49,127.58l-2.39,8.82a17.86,17.86,0,0,1-1.65,4.26,4.45,4.45,0,0,1-1.71,1.68,4.65,4.65,0,0,1-2.2.57,2.17,2.17,0,0,1-1.4-.37,1.05,1.05,0,0,1-.45-.83,1.12,1.12,0,0,1,.37-.84,1.33,1.33,0,0,1,1-.36,1,1,0,0,1,.71.24.75.75,0,0,1,.25.57,1,1,0,0,1-.3.65.4.4,0,0,0-.12.2.19.19,0,0,0,.07.15.34.34,0,0,0,.22.06,1,1,0,0,0,.85-.56,14.29,14.29,0,0,0,.87-2.78l2.29-8.62a7.42,7.42,0,0,0,.25-1.17.6.6,0,0,0-.25-.43,1,1,0,0,0-.65-.21h-.29l.12-.42,3.78-.62Zm-.94-5.15a1.56,1.56,0,0,1,1.17.49,1.61,1.61,0,0,1,.49,1.18,1.66,1.66,0,0,1-1.66,1.65,1.66,1.66,0,0,1-1.67-1.65,1.67,1.67,0,0,1,1.67-1.67Z" style="fill: #fff"/>
      <path d="M215.75,127.74l-2.18,7.45-.22.9a2.35,2.35,0,0,0,0,.25.37.37,0,0,0,.1.24.3.3,0,0,0,.2.1,1.22,1.22,0,0,0,.65-.36,9.06,9.06,0,0,0,.8-1l.39.2a6.37,6.37,0,0,1-1.69,2.12,3.18,3.18,0,0,1-1.95.67,1.33,1.33,0,0,1-1-.33,1.15,1.15,0,0,1-.34-.84,6.89,6.89,0,0,1,.36-1.62l.27-.91a11.05,11.05,0,0,1-2.5,3.16,2.35,2.35,0,0,1-1.48.54,1.57,1.57,0,0,1-1.49-.85,4,4,0,0,1-.45-1.91,8.7,8.7,0,0,1,1-3.62,9,9,0,0,1,2.53-3.29,3.94,3.94,0,0,1,2.42-1,1.38,1.38,0,0,1,1,.37,2.47,2.47,0,0,1,.56,1.32l.4-1.38Zm-3.59,2.13a2.29,2.29,0,0,0-.28-1.31.63.63,0,0,0-.55-.28,1.07,1.07,0,0,0-.71.33,8.19,8.19,0,0,0-1.62,2.82,9.94,9.94,0,0,0-.87,3.67,1.44,1.44,0,0,0,.19.85.57.57,0,0,0,.44.27,1.45,1.45,0,0,0,1-.59,9.19,9.19,0,0,0,1.33-2A8.6,8.6,0,0,0,212.16,129.87Z" style="fill: #fff"/>
    </g>
    <g>
      <rect width="124.11" height="112.33" style="fill: #cc1514"/>
      <path d="M77.79,39.07l-42,0V0H10.37V64.65h0v1.62c0,17.71,20.38,25.5,35.34,25.5H79.28c15,0,34.46-7.92,34.46-27.12C113.74,47.82,92.74,39.07,77.79,39.07ZM88,64.65a13.41,13.41,0,0,1-13.41,13.4H49.18a13.41,13.41,0,0,1-13.41-13.4h0V51.24H74.58A13.42,13.42,0,0,1,88,64.65Z" style="fill: #fff"/>
    </g>
  </g>
</svg>
