<?xml version="1.0" encoding="utf-8"?>
<!-- Generator: Adobe Illustrator 25.2.3, SVG Export Plug-In . SVG Version: 6.00 Build 0)  -->
<svg version="1.1" id="Layer_1" xmlns="http://www.w3.org/2000/svg" xmlns:xlink="http://www.w3.org/1999/xlink" x="0px" y="0px"
	 viewBox="0 0 155.9 42.2" style="enable-background:new 0 0 155.9 42.2;" xml:space="preserve">
<style type="text/css">
	.st0{fill:#3DABE0;}
	.st1{clip-path:url(#SVGID_2_);}
	.st2{fill:#EB1E5F;}
	.st3{clip-path:url(#SVGID_4_);}
	.st4{fill:#FFFFFF;}
</style>
<g>
	<g id="Layer_2_1_">
		<g id="Layer_1-2">
			<path class="st0" d="M6.1,23c-0.1-0.8,0.5-1.6,1.3-1.8c0.1,0,0.1,0,0.2,0l28.3-0.6c0.8,0,1.6,0.6,1.6,1.5c0,0.1,0,0.1,0,0.2
				l-1.5,12.9c7.5-8.2,7-20.9-1.2-28.4s-20.8-7-28.3,1.1s-7,20.9,1.2,28.4c0.1,0.1,0.2,0.2,0.3,0.2L6.1,23z"/>
			<g>
				<g>
					<g>
						<defs>
							<rect id="SVGID_1_" x="12.5" y="26.4" width="16.9" height="13.9"/>
						</defs>
						<clipPath id="SVGID_2_">
							<use xlink:href="#SVGID_1_"  style="overflow:visible;"/>
						</clipPath>
						<g class="st1">
							<path class="st2" d="M20.1,40.3c-2.9-0.5-6-3.4-7.6-13.1c-0.1-0.5,0-0.6,0.4-0.7s0.6,0.2,0.7,0.6c1.6,9.7,5.1,11.2,7.5,11.2
								c3.3,0,5.4-3,6.7-10.3c0.1-0.5,0.6-0.6,0.9-0.6c0.5,0.1,0.7,0.5,0.6,0.8c0,0,0,0,0,0.1c-0.4,2.8-1.2,5.5-2.5,8
								c-1.5,2.8-3.5,4.1-5.9,4.1C20.7,40.4,20.4,40.3,20.1,40.3"/>
						</g>
					</g>
				</g>
			</g>
			<g>
				<g>
					<g>
						<defs>
							<rect id="SVGID_3_" x="26.3" y="25.1" width="4.9" height="1.9"/>
						</defs>
						<clipPath id="SVGID_4_">
							<use xlink:href="#SVGID_3_"  style="overflow:visible;"/>
						</clipPath>
						<g class="st3">
							<path class="st2" d="M26.9,26.8c-0.3-0.1-0.5-0.3-0.6-0.5c-0.2-0.4,0-0.8,0.4-1c0.6-0.3,1.5-0.4,2.2-0.3
								c0.7,0.1,1.4,0.4,1.9,0.9c0.3,0.3,0.5,0.6,0.2,0.9C31,27,30.5,27,30.2,26.7c-0.5-0.3-0.9-0.5-1.5-0.5c-0.6-0.1-1,0.1-1.4,0.5
								C27.2,26.9,27.1,26.9,26.9,26.8"/>
						</g>
					</g>
				</g>
			</g>
			<path class="st4" d="M21.1,9.4c-3.3,0.4-6.5,1.5-8.3,9c-0.1,0.3-0.1,0.5,0.4,0.5c0.4,0.1,0.6-0.1,0.7-0.5c2.2-7,5.2-7.6,8.2-7.6
				c3.3-0.1,5.3,2,6.2,7.3c0.1,0.3,0.5,0.5,0.8,0.5s0.7-0.4,0.7-0.6c-0.3-2-0.9-4.1-2-5.8c-1.3-1.9-3.5-3-5.7-2.8
				C21.8,9.4,21.5,9.4,21.1,9.4"/>
			<g>
				<path class="st4" d="M56.4,32c-0.1,0.3-0.4,0.6-0.7,0.5h-3.8c-0.3,0-0.6-0.2-0.7-0.5l-5.3-15.7c-0.2-0.5,0-0.7,0.5-0.7h2.3
					c0.4,0,0.6,0.2,0.7,0.6l4.2,12.4H54l4.1-12.4c0.1-0.3,0.4-0.6,0.7-0.6h2.3c0.5,0,0.6,0.3,0.5,0.7L56.4,32z"/>
				<path class="st4" d="M78.5,24.2c0,0.4-0.3,0.6-0.6,0.6l0,0H66.6c0.2,3.4,2.1,4.8,4.6,4.8c1.4,0.1,2.7-0.6,3.3-1.8
					c0.2-0.3,0.5-0.5,0.7-0.5h2.2c0.5,0,0.7,0.3,0.6,0.7c-1.1,3-4,4.9-7.1,4.8c-4.6,0-8-3.5-8-8.9s3.3-9.1,8.3-9.1
					C76.3,15,78.7,19.2,78.5,24.2 M66.7,21.9h8c0-2-1.6-3.6-3.6-3.7c-0.1,0-0.2,0-0.4,0C68.2,18.3,67.2,20.1,66.7,21.9"/>
				<path class="st4" d="M95.6,21.6v10.2c0,0.3-0.2,0.6-0.5,0.6h-0.1h-2.7c-0.3,0-0.6-0.2-0.6-0.5v-0.1v-9.4c0-2.6-1.2-4-3-4
					c-2.3,0-4.1,1.8-3.8,5.8l0.1,7.4c0,0.3-0.2,0.6-0.5,0.6h-0.1h-2.6c-0.3,0-0.6-0.2-0.6-0.5c0-0.1,0-0.1,0-0.2L81.3,16
					c0-0.3,0.2-0.6,0.5-0.6h0.1h2.4c0.3,0,0.6,0.2,0.6,0.5v0.1v1.7h0.3c1-1.8,2.9-2.9,4.9-2.8C93.3,15.1,95.5,17.5,95.6,21.6"/>
				<path class="st4" d="M110.9,32.4c-0.3,0-0.6-0.2-0.6-0.5v-0.1v-1.6h-0.2c-1,1.8-3,2.9-5,2.8c-4.1,0-6.9-3.7-6.9-8.8
					c0-5.4,3.2-9.1,8-9.1c1.6-0.1,3,0.6,4.1,1.6h0.2V9.5c0-0.3,0.2-0.6,0.5-0.6h0.1h2.4c0.3,0,0.6,0.2,0.6,0.5v0.1l0.2,22.3
					c0,0.3-0.2,0.6-0.5,0.6h-0.1L110.9,32.4L110.9,32.4z M110.5,23.9c0.1-3.8-2-5.5-4.5-5.5c-2.8,0-4.2,2.1-4.2,5.6
					c0,3.8,1.8,5.7,4.2,5.7S110.6,27.5,110.5,23.9"/>
				<path class="st4" d="M133.1,23.8c0,5.3-3.6,9.1-8.4,9.1s-8.1-3.7-8.1-8.9s3.6-9,8.4-9C129.6,15.1,133.1,18.6,133.1,23.8
					 M120.4,23.8c0,3.6,2.1,5.9,4.8,5.9c2.5,0,4.2-2.1,4.2-5.4c0-3.7-2.1-5.9-4.8-5.9C122.2,18.3,120.4,20.4,120.4,23.8"/>
				<path class="st4" d="M144.9,18.3c0,0.3-0.2,0.6-0.5,0.6h-0.1c-2.9,0.1-5,1-4.8,5.3l0.1,7.5c0,0.3-0.2,0.6-0.5,0.6
					c-0.1,0-0.1,0-0.2,0h-2.6c-0.3,0-0.6-0.2-0.6-0.5c0-0.1,0-0.1,0-0.2l0.1-15.7c0-0.3,0.2-0.6,0.5-0.6h0.1h2.4
					c0.3,0,0.6,0.2,0.6,0.5V16v1.6h0.3c1.1-1.5,2.7-2.5,4.5-2.7c0.3-0.1,0.6,0.1,0.6,0.5c0,0.1,0,0.1,0,0.2L144.9,18.3z"/>
			</g>
		</g>
	</g>
</g>
<g>
	<path class="st4" d="M152.9,13c0,1.5-1.2,2.7-2.7,2.7c-1.5,0-2.7-1.2-2.7-2.7c0-1.5,1.2-2.6,2.7-2.6
		C151.7,10.4,152.9,11.6,152.9,13z M148.2,13c0,1.2,0.9,2.1,2.1,2.1c1.2,0,2-0.9,2-2.1c0-1.2-0.9-2.1-2-2.1S148.2,11.9,148.2,13z
		 M149.8,14.4h-0.6v-2.6c0.2,0,0.6-0.1,1-0.1c0.5,0,0.7,0.1,0.9,0.2c0.1,0.1,0.3,0.3,0.3,0.6c0,0.3-0.2,0.5-0.5,0.6v0
		c0.3,0.1,0.4,0.3,0.5,0.6c0.1,0.4,0.1,0.6,0.2,0.7h-0.7c-0.1-0.1-0.1-0.3-0.2-0.6c0-0.3-0.2-0.4-0.5-0.4h-0.3V14.4z M149.8,12.9
		h0.3c0.3,0,0.6-0.1,0.6-0.4c0-0.2-0.2-0.4-0.6-0.4c-0.2,0-0.3,0-0.3,0V12.9z"/>
</g>
</svg>
